<svg enable-background="new 0 0 512 512" viewBox="0 0 512 512" xmlns="http://www.w3.org/2000/svg"><path d="m59.006 310.554h395.988c15.613 0 28.285 10.583 28.285 23.624v106.307c0 13.052-12.672 23.624-28.285 23.624h-395.988c-15.613 0-28.285-10.572-28.285-23.624v-106.307c0-13.04 12.672-23.624 28.285-23.624z" fill="#0d7a7c"/><path d="m257 30.447c14.647 0 26.959 9.405 31.605 22.447h24.512c0-24.793-25.118-44.894-56.117-44.894-30.988 0-56.117 20.101-56.117 44.894h24.512c4.646-13.042 16.97-22.447 31.605-22.447z" fill="#332a23"/><path d="m153.936 52.894h206.128c48.764 0 88.341 43.373 88.341 96.852v322.838c0 17.837-13.192 32.284-29.447 32.284h-323.916c-16.255 0-29.447-14.447-29.447-32.284v-322.839c0-53.478 39.547-96.851 88.341-96.851z" fill="#065654"/><path d="m109.765 52.894h294.469c32.524 0 58.894 31.891 58.894 71.226v71.226c0 39.335-26.37 71.244-58.894 71.244h-294.469c-32.524 0-58.894-31.909-58.894-71.244v-71.226c.001-39.335 26.37-71.226 58.894-71.226z" fill="#0d7a7c"/><path d="m139.212 362.087s11.352 29.447 22.542 29.447c10.881 0 21.629-29.447 21.629-29.447v-309.193h-44.17v309.193zm191.405-309.193v309.193s11.352 29.447 22.542 29.447c10.881 0 21.629-29.447 21.629-29.447v-309.193z" fill="#f2a74e"/><path d="m146.574 332.64h29.447c12.197 0 22.085-9.888 22.085-22.085 0-12.197-9.888-22.085-22.085-22.085h-29.447c-12.197 0-22.085 9.888-22.085 22.085 0 12.197 9.888 22.085 22.085 22.085zm169.32-22.086c0 12.197 9.888 22.085 22.085 22.085h29.447c12.197 0 22.085-9.888 22.085-22.085 0-12.197-9.888-22.085-22.085-22.085h-29.447c-12.197 0-22.085 9.888-22.085 22.085z" fill="#332a23"/><path d="m292.833 147.803-23.889-23.878c-6.598-6.598-17.281-6.598-23.878 0l-23.899 23.878c-6.598 6.598-6.598 17.291 0 23.889l23.899 23.868c6.598 6.598 17.27 6.598 23.878 0l23.889-23.868c6.597-6.599 6.597-17.292 0-23.889zm-45.827 17.26c0 2.819-2.288 5.107-5.107 5.107-2.809 0-5.107-2.288-5.107-5.107v-10.213c0-2.819 2.298-5.107 5.107-5.107 2.819 0 5.107 2.288 5.107 5.107zm30.64 0c0 2.819-2.288 5.107-5.107 5.107-2.809 0-5.107-2.288-5.107-5.107v-10.213c0-2.819 2.298-5.107 5.107-5.107 2.819 0 5.107 2.288 5.107 5.107z" fill="#d7f4f7"/></svg>